<svg width="24" height="24" viewBox="0 0 24 24" fill="none" xmlns="http://www.w3.org/2000/svg">
<path d="M11.414 10L4.031 17.418C3.83535 17.6123 3.68007 17.8435 3.57411 18.0981C3.46815 18.3527 3.4136 18.6257 3.4136 18.9015C3.4136 19.1773 3.46815 19.4503 3.57411 19.7049C3.68007 19.9595 3.83535 20.1907 4.031 20.385C4.42637 20.7783 4.96135 20.999 5.519 20.999C6.07665 20.999 6.61163 20.7783 7.007 20.385L14.414 13" stroke="#10B77F" stroke-width="2" stroke-linecap="round" stroke-linejoin="round"/>
<path d="M18.121 15.293L20.707 12.707C20.8945 12.5195 20.9998 12.2652 20.9998 12C20.9998 11.7348 20.8945 11.4805 20.707 11.293L13.121 3.707C12.9335 3.51953 12.6792 3.41422 12.414 3.41422C12.1488 3.41422 11.8945 3.51953 11.707 3.707L9.121 6.293C8.93353 6.48053 8.82822 6.73484 8.82822 7C8.82822 7.26517 8.93353 7.51947 9.121 7.707L16.707 15.293C16.8945 15.4805 17.1488 15.5858 17.414 15.5858C17.6792 15.5858 17.9335 15.4805 18.121 15.293Z" stroke="#10B77F" stroke-width="2" stroke-linecap="round" stroke-linejoin="round"/>
</svg>
